<svg width="15" height="22" viewBox="0 0 15 22" fill="none" xmlns="http://www.w3.org/2000/svg">
<path d="M7.49967 0C3.36431 0 0 3.42523 0 7.63498C0 11.6872 6.80458 21.1547 7.09432 21.5556L7.36472 21.9302C7.39634 21.9743 7.4467 22 7.49967 22C7.55347 22 7.6035 21.9743 7.63545 21.9302L7.90568 21.5556C8.19558 21.1547 15 11.6872 15 7.63498C15 3.42523 11.6351 0 7.49967 0ZM7.49967 4.90014C8.98139 4.90014 10.1863 6.12671 10.1863 7.63498C10.1863 9.14247 8.98133 10.3698 7.49967 10.3698C6.01883 10.3698 4.81309 9.14247 4.81309 7.63498C4.81309 6.12671 6.01878 4.90014 7.49967 4.90014Z" fill="#465F57"/>
</svg>
