<svg width="63" height="64" viewBox="0 0 63 64" fill="none" xmlns="http://www.w3.org/2000/svg">
<path d="M33.1002 6.35043C33.1002 7.15413 32.4502 7.80588 31.6486 7.80588H31.3515C30.5498 7.80588 29.8999 7.15413 29.8999 6.35043C29.8999 5.54673 30.5498 4.89498 31.3515 4.89498H31.6486C32.4502 4.89498 33.1002 5.54658 33.1002 6.35043ZM62.6271 32.974L58.222 37.8775C57.6855 38.4749 56.7673 38.5229 56.1719 37.985C55.5761 37.447 55.5281 36.5266 56.0647 35.9294L59.554 32.0451L57.1331 29.5842L48.978 38.6616C48.4415 39.2591 47.5233 39.3069 46.928 38.7689C46.3323 38.2309 46.2842 37.3106 46.821 36.7135L55.0909 27.5082L52.8018 25.1815L41.2989 37.986C40.7624 38.5833 39.8443 38.6313 39.2488 38.0934C38.6531 37.5555 38.6052 36.635 39.1417 36.0379L50.7595 23.1054L48.3266 20.6325L33.4533 37.1877L43.8597 48.7713C44.3962 49.3686 44.3485 50.2888 43.7528 50.8267C43.1572 51.3649 42.2393 51.3168 41.7028 50.7194L39.4047 48.1616V57.0469C39.4047 57.8506 38.7547 58.5023 37.9531 58.5023C37.1515 58.5023 36.5015 57.8506 36.5015 57.0469V44.9301L32.9516 40.9788V62.5445C32.9516 63.3482 32.3017 64 31.5 64C30.6983 64 30.0484 63.3482 30.0484 62.5445V40.978L26.4986 44.9292V57.0467C26.4986 57.8504 25.8487 58.5022 25.047 58.5022C24.2453 58.5022 23.5954 57.8504 23.5954 57.0467V48.1609L21.297 50.7193C20.7605 51.3166 19.8424 51.3646 19.2469 50.8267C18.6512 50.2888 18.6033 49.3683 19.1398 48.7712L29.5457 37.1878L14.6733 20.6326L12.2403 23.1057L23.858 36.038C24.3945 36.6353 24.3466 37.5556 23.751 38.0935C23.1552 38.6313 22.2372 38.5832 21.7009 37.9861L10.198 25.1818L7.9091 27.5083L16.1788 36.7136C16.7153 37.3109 16.6674 38.2312 16.0718 38.7692C15.4759 39.3069 14.5582 39.2588 14.0217 38.6617L5.86683 29.5844L3.44598 32.0453L6.93536 35.9296C7.47188 36.5269 7.42397 37.4472 6.82823 37.9851C6.23249 38.523 5.31478 38.4749 4.77812 37.8777L0.373058 32.974C-0.141248 32.4014 -0.121507 31.5264 0.418203 30.9778L15.4425 15.7055C15.7153 15.4282 16.0876 15.2721 16.4761 15.2721H22.7508L25.833 2.9109H22.579C21.7772 2.9109 21.1273 2.25915 21.1273 1.45545C21.1273 0.651751 21.7772 0 22.579 0L35.308 0.000145545C35.9741 0.000145545 36.5548 0.454683 36.7162 1.1025L40.2494 15.2721H46.5243C46.9128 15.2721 47.285 15.4281 47.5577 15.7055L62.5819 30.9778C63.1215 31.5262 63.1412 32.4014 62.6271 32.974ZM25.7433 15.2722H37.2569L34.1747 2.91105H28.8257L25.7433 15.2722ZM46.2844 18.5564L45.9171 18.1831H17.0831L16.7157 18.5566L31.4995 35.0131L46.2844 18.5564ZM37.7364 20.8566C37.1407 20.3187 36.2227 20.3664 35.6863 20.9639L31.4998 25.6237L27.3138 20.9639C26.7773 20.3666 25.8593 20.3187 25.2637 20.8565C24.668 21.3944 24.6201 22.3148 25.1566 22.912L30.4211 28.7724C30.6964 29.0788 31.0885 29.2539 31.4997 29.2539C31.9109 29.2539 32.303 29.0789 32.5782 28.7725L37.8432 22.9122C38.3799 22.3148 38.332 21.3946 37.7364 20.8566Z" fill="#465F57"/>
</svg>
